# xmcd
#
# Track frame offsets:
#	150
#	16926
#	32938
#	47683
#	65437
#	87004
#	107070
#	122989
#	138617
#	154703
#	172557
#	188980
#	206997
#	227623
#	243960
#	261776
#	280927
#	298416
#	319846
#	337448
#
# Disc length: 4722 seconds
#
# Revision: 2
# Processed by: cddbd v1.4PL0 Copyright (c) Steve Scherf et al.
# Submitted via: audiograbber 1.80.04
#
DISCID=2e127014
DTITLE=Bad Boyz - 20 Best Of The Bad Boyz
DYEAR=1997
DGENRE=Easy Listening
TTITLE0=Everybody (Backstreet's)
TTITLE1=Round and Round
TTITLE2=Everything Changes
TTITLE3=I Need You
TTITLE4=I'll Never Break Your Heart
TTITLE5=Stay Another Day
TTITLE6=Could It Be Magic
TTITLE7=Tearin' Up My Heart
TTITLE8=Get Down (You're The One)
TTITLE9=Love Me For A Reason
TTITLE10=How Deep Is Your Love
TTITLE11=D.i.s.c.o.
TTITLE12=Anywhere For You
TTITLE13=End Of The Road
TTITLE14=Back For Good
TTITLE15=Thunder
TTITLE16=Quit Playing Games With My Heart
TTITLE17=Anything
TTITLE18=Love Ain't Here Anymore
TTITLE19=We've Got It Going On
EXTD=
EXTT0=
EXTT1=
EXTT2=
EXTT3=
EXTT4=
EXTT5=
EXTT6=
EXTT7=
EXTT8=
EXTT9=
EXTT10=
EXTT11=
EXTT12=
EXTT13=
EXTT14=
EXTT15=
EXTT16=
EXTT17=
EXTT18=
EXTT19=
PLAYORDER=
